<?xml version="1.0"?>
<svg xmlns:rdf="http://www.w3.org/1999/02/22-rdf-syntax-ns#" xmlns="http://www.w3.org/2000/svg" xmlns:cc="http://creativecommons.org/ns#" xmlns:dc="http://purl.org/dc/elements/1.1/" xmlns:svg="http://www.w3.org/2000/svg" id="svg2" viewBox="0 0 246.46 127.55" version="1.0">
  <path id="path3264" d="m42.912 29.806c0.266 0.479-24.918 26.872-25.179 32.249-0.595 12.242 29.471-26.885 28.472-28.089l-1.646-3.744-1.647-0.416z" fill-rule="evenodd" stroke="#000" stroke-width=".15517px" fill="#ececec"/>
  <path id="path3260" d="m50.042 109.96l99.778 0.47c0.27-5.95 0.62-8.2 2.25-11.772 2.57-5.22 6.05-6.841 8.62-8.235 5.8-3.157 13.72-1.629 16.34-0.541 3.25 1.357 7.76 5.633 9.51 10.418 1.49 4.07 1.57 8.01 1.59 10.17l56.11-0.35s5.98-94.853-5.28-104.98c-11.25-10.133-200.84-0.0031-200.84-0.0031l-1.76 22.022s7.035-0.881 7.035 3.523c0 4.405-16.884 24.665-16.884 24.665s-23.566 10.57-24.973 18.939c-1.4073 8.368-0.3521 18.498-0.3521 18.498l12.755 1.786s9.085-7.484 19.235-6.512c10.182 0.976 16.07 11.868 16.866 21.902z" fill-rule="evenodd" stroke="#000" stroke-width="1.2692" fill="#ff0"/>
  <path id="path3280" stroke-width=".16629px" stroke="#000" fill-rule="evenodd" d="m0.49076 93.252v19.018h10.892s-1.172-11.67 4.514-18.137l1.631-2.453-17.037 1.572z"/>
  <path id="path2384" d="m480.88 852.67a142.38 128.24 0 1 1 -284.75 0 142.38 128.24 0 1 1 284.75 0z" transform="matrix(.095038 0 0 -.11240 -2.0943 204.3)" stroke="#000" stroke-width="79.476" fill="#333"/>
  <path id="path3254" d="m480.88 852.67a142.38 128.24 0 1 1 -284.75 0 142.38 128.24 0 1 1 284.75 0z" transform="matrix(.096744 0 0 -.11351 136.37 205.32)" stroke="#000" stroke-width="79.476" fill="#333"/>
  <path id="path3266" stroke="#000" stroke-width="1.4683" fill="none" d="m37.166 25.252c207.33-1.743 206.97-2.353 206.97-2.353"/>
  <rect id="rect3268" height="29.95" width="24.622" stroke="#000" y="34.206" x="81.032" stroke-width="1.2397" fill="#ececec"/>
  <rect id="rect3272" height="29.95" width="24.622" stroke="#000" y="33.875" x="113.74" stroke-width="1.2397" fill="#ececec"/>
  <rect id="rect3274" height="29.95" width="24.622" stroke="#000" y="33.545" x="146.46" stroke-width="1.2397" fill="#ececec"/>
  <rect id="rect3276" height="29.95" width="24.622" stroke="#000" y="33.215" x="179.17" stroke-width="1.2397" fill="#ececec"/>
  <rect id="rect3278" height="29.95" width="24.622" stroke="#000" y="32.774" x="211.18" stroke-width="1.2397" fill="#ececec"/>
  <path id="path3282" stroke="#000" stroke-width=".14758px" fill="none" d="m1.8894 92.344z"/>
  <path id="path3284" stroke="#000" stroke-width="1.9621" fill="none" d="m0.98107 82.233c244.6-2.639 244.17-3.562 244.17-3.562"/>
  <path id="path2734" d="m96.936 73.159v-9.233l-5.148-6.446h-7.304l-5.287 6.62v8.798l5.183 6.489h7.408l5.148-6.228z" fill-rule="evenodd" stroke="#000" stroke-width=".06461px" fill="#fff"/>
  <path id="path2715" d="m96.529 72.852v-8.783l-4.897-6.132h-6.948l-5.029 6.297v8.369l4.929 6.173h7.048l4.897-5.924z" fill-rule="evenodd" stroke="#000" stroke-width=".061459px" fill="#f00"/>
  <path id="text2717" d="m80.443 69.75l0.826-0.139c0.099 0.916 0.406 1.374 0.923 1.373 0.255-0.001 0.456-0.094 0.601-0.28 0.145-0.19 0.217-0.423 0.215-0.7-0.001-0.163-0.027-0.302-0.079-0.416s-0.131-0.206-0.236-0.278c-0.105-0.075-0.359-0.198-0.763-0.37-0.361-0.152-0.626-0.318-0.795-0.497-0.168-0.179-0.303-0.413-0.405-0.703-0.1-0.294-0.151-0.608-0.153-0.944-0.003-0.391 0.058-0.743 0.181-1.057 0.126-0.313 0.3-0.55 0.522-0.71s0.497-0.24 0.825-0.241c0.493-0.001 0.879 0.185 1.158 0.56 0.28 0.374 0.43 0.91 0.45 1.608l-0.847 0.065c-0.039-0.385-0.121-0.653-0.246-0.806-0.124-0.153-0.3-0.23-0.528-0.229-0.228 0-0.403 0.068-0.525 0.202s-0.183 0.3-0.182 0.499c0.002 0.195 0.059 0.36 0.171 0.493 0.113 0.134 0.37 0.28 0.774 0.439 0.426 0.172 0.735 0.354 0.924 0.546 0.192 0.188 0.339 0.434 0.441 0.737 0.102 0.3 0.154 0.665 0.157 1.095 0.004 0.623-0.129 1.146-0.401 1.571-0.269 0.424-0.694 0.637-1.276 0.638-1.027 0.002-1.605-0.816-1.732-2.456m5.08 2.322l-0.04-5.956-1.245 0.002-0.008-1.212 3.331-0.008 0.008 1.213-1.242 0.003 0.04 5.956-0.844 0.002m2.351-3.546c-0.005-0.854 0.079-1.557 0.255-2.108 0.178-0.554 0.411-0.967 0.7-1.239 0.289-0.271 0.64-0.407 1.054-0.408 0.6-0.001 1.09 0.319 1.471 0.96 0.383 0.642 0.579 1.556 0.587 2.743 0.008 1.199-0.186 2.137-0.582 2.813-0.347 0.597-0.822 0.896-1.424 0.898-0.607 0.001-1.087-0.293-1.442-0.882-0.405-0.674-0.611-1.6-0.619-2.777m0.872-0.05c0.005 0.824 0.121 1.444 0.347 1.857 0.226 0.41 0.504 0.615 0.834 0.614 0.333 0 0.607-0.205 0.823-0.613 0.215-0.411 0.321-1.04 0.315-1.888-0.005-0.831-0.117-1.445-0.333-1.843-0.214-0.397-0.493-0.595-0.838-0.595-0.344 0.001-0.623 0.202-0.836 0.604-0.214 0.401-0.318 1.022-0.312 1.864m3.881 3.581l-0.047-7.169 1.36-0.003c0.507-0.001 0.838 0.032 0.994 0.1 0.25 0.111 0.456 0.347 0.619 0.708 0.165 0.362 0.25 0.828 0.253 1.398 0.004 0.519-0.063 0.954-0.2 1.306-0.137 0.349-0.31 0.596-0.519 0.74-0.208 0.141-0.568 0.211-1.079 0.212l-0.555 0.002 0.018 2.704-0.844 0.002m0.805-5.958l0.013 2.034 0.467-0.001c0.314-0.001 0.527-0.032 0.638-0.094 0.114-0.062 0.206-0.173 0.277-0.333 0.071-0.164 0.106-0.362 0.104-0.597-0.002-0.238-0.04-0.439-0.116-0.601-0.075-0.163-0.168-0.272-0.277-0.328-0.11-0.055-0.341-0.082-0.695-0.081l-0.411 0.001" fill="#fff"/>
  <rect id="rect3369" height="7.1489" width="1.4883" stroke="#000" y="64.985" x="77.122" stroke-width="1.1487" fill="#1a1a1a"/>
  <rect id="rect3371" height="10.571" width="2.814" y="65.477" x="242.48" stroke-width="0" fill="#f00"/>
  <path id="path3373" stroke-width="0" transform="matrix(.13189 0 0 .16515 -11.389 -27.106)" fill="#800000" d="m773.42 535.28a17.335 17.335 0 1 1 -34.67 0 17.335 17.335 0 1 1 34.67 0z"/>
  <path id="path3375" stroke-width="0" transform="matrix(.13189 0 0 .16515 -11.389 -12.352)" fill="#800000" d="m773.42 535.28a17.335 17.335 0 1 1 -34.67 0 17.335 17.335 0 1 1 34.67 0z"/>
  <path id="path3377" d="m74.642 34.719s1.311 29.822-0.381 29.822c-4.86 0-42.027 0.423-42.027 0.423s-3.976-1.852-0.442-6.173c3.534-5.555 16.345-23.455 16.345-23.455l26.505-0.617z" fill-rule="evenodd" stroke="#000" stroke-width="1.3253" fill="#e6e6e6"/>
  <path id="flowRoot3379" d="m113.25 69.488v1.427c-0.3-0.165-0.59-0.29-0.87-0.374-0.28-0.085-0.55-0.127-0.8-0.127-0.33 0-0.57 0.057-0.73 0.172-0.16 0.114-0.24 0.292-0.24 0.533 0 0.18 0.05 0.322 0.16 0.424 0.11 0.099 0.3 0.185 0.58 0.258l0.59 0.149c0.6 0.15 1.03 0.379 1.28 0.686s0.38 0.744 0.38 1.309c0 0.744-0.18 1.298-0.53 1.662-0.35 0.362-0.89 0.542-1.61 0.542-0.34 0-0.69-0.041-1.03-0.122s-0.69-0.201-1.03-0.361v-1.468c0.34 0.229 0.67 0.402 0.99 0.52 0.32 0.114 0.64 0.171 0.93 0.171 0.31 0 0.54-0.063 0.7-0.189 0.16-0.127 0.24-0.307 0.24-0.542 0-0.211-0.05-0.374-0.17-0.488-0.1-0.114-0.32-0.217-0.65-0.307l-0.54-0.149c-0.53-0.145-0.93-0.375-1.18-0.691s-0.37-0.742-0.37-1.278c0-0.671 0.17-1.188 0.52-1.549s0.84-0.542 1.49-0.542c0.3 0 0.6 0.029 0.92 0.086 0.31 0.054 0.63 0.137 0.97 0.248m5.86 6.16c-0.26 0.165-0.52 0.29-0.8 0.375-0.28 0.084-0.57 0.126-0.87 0.126-0.89 0-1.6-0.313-2.13-0.939-0.52-0.629-0.78-1.481-0.78-2.556 0-1.078 0.26-1.93 0.78-2.556 0.53-0.629 1.24-0.944 2.13-0.944 0.3 0 0.59 0.042 0.87 0.127 0.28 0.084 0.54 0.209 0.8 0.375v1.395c-0.26-0.22-0.52-0.381-0.77-0.483-0.25-0.103-0.51-0.154-0.78-0.154-0.5 0-0.89 0.199-1.17 0.596-0.29 0.398-0.43 0.946-0.43 1.644 0 0.695 0.14 1.242 0.43 1.639 0.28 0.398 0.67 0.596 1.17 0.596 0.27 0 0.53-0.051 0.78-0.153 0.25-0.103 0.51-0.264 0.77-0.483v1.395m1.14-6.372h1.38v2.57h2.05v-2.57h1.39v6.742h-1.39v-2.858h-2.05v2.858h-1.38v-6.742m8.63 1.138c-0.42 0-0.75 0.196-0.99 0.587-0.23 0.392-0.35 0.943-0.35 1.653 0 0.707 0.12 1.257 0.35 1.648 0.24 0.392 0.57 0.587 0.99 0.587s0.75-0.195 0.99-0.587c0.23-0.391 0.35-0.941 0.35-1.648 0-0.71-0.12-1.261-0.35-1.653-0.24-0.391-0.57-0.587-0.99-0.587m0-1.26c0.86 0 1.54 0.31 2.03 0.931 0.49 0.62 0.74 1.476 0.74 2.569 0 1.09-0.25 1.945-0.74 2.565s-1.17 0.93-2.03 0.93-1.54-0.31-2.04-0.93c-0.49-0.62-0.73-1.475-0.73-2.565 0-1.093 0.24-1.949 0.73-2.569 0.5-0.621 1.18-0.931 2.04-0.931m6.27 1.26c-0.42 0-0.75 0.196-0.98 0.587-0.23 0.392-0.35 0.943-0.35 1.653 0 0.707 0.12 1.257 0.35 1.648 0.23 0.392 0.56 0.587 0.98 0.587 0.43 0 0.76-0.195 0.99-0.587 0.24-0.391 0.35-0.941 0.35-1.648 0-0.71-0.11-1.261-0.35-1.653-0.23-0.391-0.56-0.587-0.99-0.587m0-1.26c0.87 0 1.55 0.31 2.04 0.931 0.49 0.62 0.73 1.476 0.73 2.569 0 1.09-0.24 1.945-0.73 2.565s-1.17 0.93-2.04 0.93c-0.86 0-1.54-0.31-2.03-0.93s-0.74-1.475-0.74-2.565c0-1.093 0.25-1.949 0.74-2.569 0.49-0.621 1.17-0.931 2.03-0.931m3.82 0.122h1.39v5.428h2.44v1.314h-3.83v-6.742m9.44 2.61c0.22 0 0.39-0.06 0.5-0.18 0.11-0.121 0.17-0.298 0.17-0.533 0-0.232-0.06-0.408-0.17-0.529-0.11-0.123-0.28-0.185-0.5-0.185h-0.77v1.427h0.77m0.05 2.949c0.28 0 0.49-0.074 0.63-0.221 0.14-0.148 0.21-0.37 0.21-0.669 0-0.292-0.07-0.51-0.21-0.654-0.14-0.148-0.35-0.222-0.63-0.222h-0.82v1.766h0.82m1.29-2.425c0.3 0.109 0.53 0.309 0.69 0.601s0.25 0.65 0.25 1.074c0 0.651-0.18 1.135-0.53 1.455-0.35 0.319-0.88 0.478-1.6 0.478h-2.31v-6.742h2.09c0.75 0 1.29 0.142 1.62 0.425 0.34 0.283 0.51 0.736 0.51 1.359 0 0.328-0.06 0.608-0.19 0.84-0.12 0.229-0.3 0.399-0.53 0.51m2.13-3.134h1.39v4.042c0 0.557 0.07 0.956 0.22 1.196 0.14 0.238 0.38 0.357 0.71 0.357s0.57-0.119 0.71-0.357c0.15-0.24 0.22-0.639 0.22-1.196v-4.042h1.39v4.042c0 0.954-0.19 1.665-0.57 2.131-0.38 0.467-0.97 0.7-1.75 0.7s-1.36-0.233-1.75-0.7c-0.38-0.466-0.57-1.177-0.57-2.131v-4.042m9.75 0.212v1.427c-0.3-0.165-0.59-0.29-0.87-0.374-0.28-0.085-0.54-0.127-0.79-0.127-0.34 0-0.58 0.057-0.74 0.172-0.16 0.114-0.24 0.292-0.24 0.533 0 0.18 0.05 0.322 0.16 0.424 0.11 0.099 0.3 0.185 0.59 0.258l0.59 0.149c0.6 0.15 1.02 0.379 1.27 0.686 0.26 0.307 0.38 0.744 0.38 1.309 0 0.744-0.17 1.298-0.53 1.662-0.35 0.362-0.89 0.542-1.61 0.542-0.34 0-0.68-0.041-1.03-0.122-0.34-0.081-0.69-0.201-1.03-0.361v-1.468c0.34 0.229 0.68 0.402 1 0.52 0.32 0.114 0.63 0.171 0.93 0.171s0.53-0.063 0.69-0.189c0.16-0.127 0.24-0.307 0.24-0.542 0-0.211-0.05-0.374-0.16-0.488s-0.33-0.217-0.65-0.307l-0.54-0.149c-0.54-0.145-0.94-0.375-1.19-0.691-0.24-0.316-0.37-0.742-0.37-1.278 0-0.671 0.18-1.188 0.52-1.549 0.35-0.361 0.85-0.542 1.5-0.542 0.29 0 0.6 0.029 0.91 0.086 0.31 0.054 0.63 0.137 0.97 0.248"/>
  <path id="path2404" stroke-width="0" transform="matrix(2.4932 .18373 -.081228 1.1023 214.83 -58.321)" fill="#800000" d="m-68.674 77.648a0.33337 6.334 0 1 1 -0.667 0 0.33337 6.334 0 1 1 0.667 0z"/>
  <metadata>
    <rdf:RDF>
      <cc:Work>
        <dc:format>image/svg+xml</dc:format>
        <dc:type rdf:resource="http://purl.org/dc/dcmitype/StillImage"/>
        <cc:license rdf:resource="http://creativecommons.org/licenses/publicdomain/"/>
        <dc:publisher>
          <cc:Agent rdf:about="http://openclipart.org/">
            <dc:title>Openclipart</dc:title>
          </cc:Agent>
        </dc:publisher>
        <dc:title>School Bus</dc:title>
        <dc:date>2008-10-18T03:34:22</dc:date>
        <dc:description>Mini School Bus</dc:description>
        <dc:source>http://openclipart.org/detail/19619/school-bus-by-schoolfreeware</dc:source>
        <dc:creator>
          <cc:Agent>
            <dc:title>schoolfreeware</dc:title>
          </cc:Agent>
        </dc:creator>
        <dc:subject>
          <rdf:Bag>
            <rdf:li>bus</rdf:li>
            <rdf:li>clip art</rdf:li>
            <rdf:li>clipart</rdf:li>
            <rdf:li>education</rdf:li>
            <rdf:li>image</rdf:li>
            <rdf:li>media</rdf:li>
            <rdf:li>mini bus</rdf:li>
            <rdf:li>png</rdf:li>
            <rdf:li>public domain</rdf:li>
            <rdf:li>school</rdf:li>
            <rdf:li>school bus</rdf:li>
            <rdf:li>svg</rdf:li>
            <rdf:li>transportation</rdf:li>
          </rdf:Bag>
        </dc:subject>
      </cc:Work>
      <cc:License rdf:about="http://creativecommons.org/licenses/publicdomain/">
        <cc:permits rdf:resource="http://creativecommons.org/ns#Reproduction"/>
        <cc:permits rdf:resource="http://creativecommons.org/ns#Distribution"/>
        <cc:permits rdf:resource="http://creativecommons.org/ns#DerivativeWorks"/>
      </cc:License>
    </rdf:RDF>
  </metadata>
</svg>
