<svg xmlns="http://www.w3.org/2000/svg" viewBox="0 0 53.8 65"><defs><style>.cls-1{isolation:isolate;}.cls-10,.cls-2,.cls-8{mix-blend-mode:multiply;}.cls-3{fill:#f2f3f4;}.cls-4{fill:#ca7894;}.cls-5{fill:#5b5b5f;}.cls-6{fill:#276534;}.cls-7{fill:#d8d8d8;}.cls-8{opacity:0.1;}.cls-9{fill:#c2c1c1;opacity:0.5;mix-blend-mode:overlay;}.cls-10{opacity:0.2;}.cls-11{fill:#eae9e8;}.cls-12{fill:none;stroke:#211915;stroke-miterlimit:10;stroke-width:0.28px;}.cls-13,.cls-14{fill:#211915;}.cls-14{font-size:8.5px;font-family:MyriadPro-Regular, Myriad Pro;}</style></defs><title>MEDIDAS_PAGINAS</title><g class="cls-1"><g id="Capa_1" data-name="Capa 1"><g class="cls-2"><polygon class="cls-3" points="0 58.23 11.48 65 43.4 45.79 31.81 38.96 0 58.23"/></g><path class="cls-4" d="M42.93,46.07c.47-.28.82-.5.82-1.07V4.22L18.45,20v40.8Z"/><path class="cls-5" d="M10.53,15.22,35.26.34A2.93,2.93,0,0,1,38,.34l5.2,3.13a.88.88,0,0,1,0,1.64L18.45,20Z"/><polygon class="cls-5" points="17.61 58.97 11.31 55.18 11.3 56.5 10.52 56.03 10.53 15.22 18.45 19.99 18.45 60.8 17.61 60.29 17.61 58.97"/><polygon class="cls-6" points="11.31 56.51 15.44 54.02 17.64 19.54 41.97 4.86 35.62 1.09 11.31 15.71 11.31 56.51"/><polygon class="cls-7" points="11.6 55.73 17.62 59.35 17.64 19.54 17.64 18.83 15.6 17.61 14.4 16.88 13.01 16.05 12.18 15.55 11.61 15.9 11.61 15.94 11.6 55.73"/><g class="cls-8"><polygon class="cls-7" points="17.62 19.49 14.88 17.85 38.78 3.47 41.51 5.12 17.62 19.49"/></g><polygon class="cls-9" points="42.55 5.49 18.5 19.83 17.62 19.49 18.33 20.1 18.45 60.8 18.66 20.12 42.55 5.49"/><polygon class="cls-4" points="34.45 2.16 35.65 1.44 41.68 5.07 40.48 5.79 34.45 2.16"/><g class="cls-10"><polygon class="cls-11" points="17.62 59.35 15.02 57.78 15.03 17.26 17.64 18.84 17.62 59.35"/></g><polygon class="cls-11" points="11.57 15.92 11.61 15.94 12.4 16.42 13.79 17.25 14.99 17.97 17.61 19.55 17.64 19.53 40.48 5.79 37.87 4.22 36.66 3.49 35.28 2.66 34.45 2.16 12.18 15.55 11.61 15.9 11.57 15.92"/><g class="cls-8"><polygon class="cls-7" points="17.6 19.56 14.98 17.98 37.87 4.21 40.48 5.79 17.6 19.56"/></g><g class="cls-8"><polygon class="cls-7" points="12.4 16.42 13.78 17.25 36.66 3.5 35.27 2.66 12.4 16.42"/></g><line class="cls-12" x1="52.88" y1="3.73" x2="52.88" y2="45.44"/><rect class="cls-13" x="51.96" y="3.58" width="1.84" height="0.28"/><rect class="cls-13" x="51.96" y="45.3" width="1.84" height="0.28"/><line class="cls-12" x1="51.01" y1="49.28" x2="26.25" y2="64.14"/><rect class="cls-13" x="50.87" y="48.36" width="0.28" height="1.84" transform="translate(-18.09 33.27) rotate(-30.96)"/><rect class="cls-13" x="26.11" y="63.21" width="0.28" height="1.84" transform="translate(-29.26 22.65) rotate(-30.96)"/><text class="cls-14" transform="translate(51.25 27.63) rotate(-90) scale(1.2 1)">L</text><text class="cls-14" transform="matrix(1.02, -0.63, 0.52, 0.85, 34.96, 58.44)">A</text></g></g></svg>